# AST/ASF file generated using VICON BodyLanguage
# -----------------------------------------------
:version 1.10
:name VICON
:units
  mass 1.0
  length 0.45
  angle deg
:documentation
   .ast/.asf automatically generated from VICON data using
   VICON BodyBuilder and BodyLanguage model FoxedUp or BRILLIANT.MOD
:root
   order TX TY TZ RX RY RZ
   axis XYZ
   position 0 0 0  
   orientation 0 0 0 
:bonedata
  begin
     id 1 
     name lhipjoint
     direction 0.567149 -0.783011 0.255413 
     length 2.28399 
     axis 0 0 0  XYZ
  end
  begin
     id 2 
     name lfemur
     direction 0.34202 -0.939693 0  
     length 7.34031  
     axis 0 0 20  XYZ
    dof rx ry rz
    limits (-160.0 20.0)
           (-70.0 70.0)
           (-60.0 70.0)
  end
  begin
     id 3 
     name ltibia
     direction 0.34202 -0.939693 0   
     length 6.9833   
     axis 0 0 20   XYZ
    dof rx
    limits (-10.0 170.0)
  end
  begin
     id 4 
     name lfoot
     direction 0.136498 -0.375025 0.91691   
     length 2.33665   
     axis -90 7.62852e-016 20   XYZ
    dof rx rz
    limits (-45.0 90.0)
           (-70.0 20.0)
  end
  begin
     id 5 
     name ltoes
     direction 1.5367e-011 -4.21617e-011 1   
     length 1.15039   
     axis -90 7.62852e-016 20   XYZ
    dof rx
    limits (-90.0 20.0)
  end
  begin
     id 6 
     name rhipjoint
     direction -0.602854 -0.758518 0.247423   
     length 2.35775  
     axis 0 0 0  XYZ 
  end
  begin
     id 7 
     name rfemur
     direction -0.34202 -0.939693 0   
     length 7.43932   
     axis 0 0 -20   XYZ
    dof rx ry rz
    limits (-160.0 20.0)
           (-70.0 70.0)
           (-70.0 60.0)
  end
  begin
     id 8 
     name rtibia
     direction -0.34202 -0.939693 0   
     length 7.11893   
     axis 0 0 -20   XYZ
    dof rx
    limits (-10.0 170.0)
 end
 begin
     id 9 
     name rfoot
     direction -0.131771 -0.362037 0.922803   
     length 2.53019  
     axis -90 -7.62852e-016 -20   XYZ
    dof rx rz
    limits (-45.0 90.0)
           (-20.0 70.0)
  end
  begin
     id 10 
     name rtoes
     direction -1.53733e-011 -4.21932e-011 1   
     length 1.24596   
     axis -90 -7.62852e-016 -20   XYZ
    dof rx
    limits (-90.0 20.0)
  end
  begin
     id 11 
     name lowerback
     direction 0.0235427 0.999023 -0.0374125   
     length 2.21768   
     axis 0 0 0   XYZ
    dof rx ry rz
    limits (-20.0 45.0)
           (-30.0 30.0)
           (-30.0 30.0)
  end
  begin
     id 12 
     name upperback
     direction 0.0302156 0.996818 -0.073759   
     length 2.20352   
     axis 0 0 0   XYZ
    dof rx ry rz
    limits (-20.0 45.0)
           (-30.0 30.0)
           (-30.0 30.0)
  end
  begin
     id 13 
     name thorax
     direction 0.0187169 0.998235 -0.0563532   
     length 2.22103   
     axis 0 0 0   XYZ
    dof rx ry rz
    limits (-20.0 45.0)
           (-30.0 30.0)
           (-30.0 30.0)
  end
  begin
     id 14 
     name lowerneck
     direction -0.119528 0.987423 0.103481   
     length 1.72948   
     axis 0 0 0   XYZ
    dof rx ry rz
    limits (-20.0 45.0)
           (-30.0 30.0)
           (-30.0 30.0)
  end
  begin
     id 15 
     name upperneck
     direction 0.248049 0.963095 -0.104496   
     length 1.74979   
     axis 0 0 0   XYZ
    dof rx ry rz
    limits (-20.0 45.0)
           (-30.0 30.0)
           (-30.0 30.0)
  end
  begin
     id 16
     name head
     direction 0.0903589 0.994284 -0.056876  
     length 1.78268  
     axis 0 0 0   XYZ
    dof rx ry rz
    limits (-20.0 45.0)
           (-30.0 30.0)
           (-30.0 30.0)
  end
  begin
     id 17 
     name lclavicle
     direction 0.946008 0.242039 -0.215608  
     length 3.80783  
     axis 0 0 0   XYZ
    dof ry rz
    limits (-20.0 10.0)
           (0.0 20.0)
  end
  begin
     id 18 
     name lhumerus
     direction 1 -4.48991e-011 -2.25695e-027   
     length 4.83125   
     axis 180 -30 -90   XYZ
    dof rx ry rz
    limits (-60.0 90.0)
           (-90.0 90.0)
           (-90.0 90.0)
  end
  begin
     id 19
     name lradius
     direction 0.999991 0.00366712 -0.00211721   
     length 3.00391   
     axis 180 -30 -90   XYZ
    dof rx
    limits (-10.0 170.0)
  end
  begin
     id 20
     name lwrist
     direction 0.999991 0.00393016 -0.00141978   
     length 1.50195   
     axis -1.00488e-014 90 90   XYZ
    dof ry
    limits (-180.0 0.0)
 end
  begin
     id 21 
     name lhand
     direction 1 -4.49123e-011 2.72098e-026   
     length 1.2717   
     axis -1.73687e-014 90 90   XYZ
    dof rx rz
    limits (-90.0 90.0)
           (-45.0 45.0)
  end
  begin
     id 22 
     name lfingers
     direction 1 -4.48678e-011 5.4479e-026   
     length 1.02528   
     axis -3.47372e-014 90 90   XYZ
    dof rx
    limits (0.0 90.0)
  end
  begin
     id 23
     name lthumb
     direction 0.707107 -6.34851e-011 0.707107   
     length 1.4721   
     axis -90 45 -1.62303e-014   XYZ
    dof rx rz
    limits (-45.0 45.0)
           (-45.0 45.0)
  end
  begin
     id 24 
     name rclavicle
     direction -0.981723 0.189447 -0.0181673   
     length 3.74989  
     axis 0 0 0   XYZ 
    dof ry rz
    limits (-10.0 20.0)
           (-20.0 0.0)
  end
  begin
     id 25 
     name rhumerus
     direction -1 -4.48985e-011 2.38206e-027  
     length 4.61118   
     axis 180 30 90   XYZ
    dof rx ry rz
    limits (-90.0 60.0)
           (-90.0 90.0)
           (-90.0 90.0)
  end
  begin
     id 26 
     name rradius
     direction -1 -4.48977e-011 7.41019e-027   
     length 2.91491   
     axis 180 30 90   XYZ
    dof rx
    limits (-10.0 170.0)
  end
  begin
     id 27 
     name rwrist
     direction -1 -4.48549e-011 1.3624e-026   
     length 1.45745   
     axis -1.00488e-014 -90 -90   XYZ
    dof ry
    limits (-180.0 0.0)
  end
  begin
     id 28
     name rhand
     direction -1 -4.49107e-011 2.72109e-026   
     length 1.30769   
     axis -1.73687e-014 -90 -90   XYZ
    dof rx rz
    limits (-90.0 90.0)
           (-45.0 45.0)
  end
  begin
     id 29
     name rfingers
     direction -1 -4.48919e-011 5.44468e-026   
     length 1.05429   
     axis -3.47372e-014 -90 -90   XYZ
    dof rx
    limits (0.0 90.0)
  end
  begin
     id 30
     name rthumb
     direction -0.707107 -6.35315e-011 0.707107   
     length 1.51376   
     axis -90 -45 1.62303e-014   XYZ
    dof rx rz
    limits (-45.0 45.0)
           (-45.0 45.0)
  end
:hierarchy
  begin
    root lhipjoint rhipjoint lowerback
    lhipjoint lfemur
    lfemur ltibia
    ltibia lfoot
    lfoot ltoes
    rhipjoint rfemur
    rfemur rtibia
    rtibia rfoot
    rfoot rtoes
    lowerback upperback
    upperback thorax
    thorax lowerneck lclavicle rclavicle
    lowerneck upperneck
    upperneck head
    lclavicle lhumerus
    lhumerus lradius
    lradius lwrist
    lwrist lhand lthumb
    lhand lfingers
    rclavicle rhumerus
    rhumerus rradius
    rradius rwrist
    rwrist rhand rthumb
    rhand rfingers
  end

#!OML:ASF X:\für Bonn\!DataBase\2005_08_11_Bastian_Final\c3d\Bastian.ASF
:FULLY-SPECIFIED
:DEGREES
23
root -0.0860652 17.3683 24.1801 -909.352 -10.4354 -896.576
lowerback 8.55852 -2.26978 -1.9953
upperback 5.80652 -3.68592 0.752976
thorax 1.39588 -2.14226 2.14717
lowerneck -17.7828 -5.37477 -5.99997
upperneck 13.9652 -7.97367 10.4681
head 7.92371 -3.25761 3.46397
rclavicle -2.3059e-014 1.19271e-015
rhumerus -39.688 -7.68306 -85.8572
rradius 23.3545
rwrist 2.96088
rhand -7.83319 5.24326
rfingers 7.12502
rthumb 18.0693 -23.9374
lclavicle -2.3059e-014 1.19271e-015
lhumerus -197.043 -178.971 257.057
lradius 13.8795
lwrist 9.60474
lhand -13.0539 -8.72048
lfingers 7.12502
lthumb 13.0412 20.8518
rfemur -6.5294 -6.26095 25.7338
rtibia 37.0033
rfoot -16.9508 -11.6168
rtoes 1.32232
lfemur 9.70567 7.81506 -13.3923
ltibia 18.4153
lfoot -12.8596 -0.868894
ltoes -8.64571
24
root -0.102897 17.3693 24.1775 -909.355 -10.2944 -896.577
lowerback 8.60373 -2.31996 -2.03671
upperback 5.7808 -3.75594 0.788156
thorax 1.35326 -2.17816 2.21462
lowerneck -17.8148 -5.37057 -5.9688
upperneck 13.9315 -7.96132 10.4271
head 7.91378 -3.253 3.44612
rclavicle -6.19711e-014 2.62396e-014
rhumerus -39.5979 -7.64033 -85.8211
rradius 23.3935
rwrist 2.95718
rhand -7.89499 5.10534
rfingers 7.12502
rthumb 18.0099 -24.0808
lclavicle -6.19711e-014 2.62396e-014
lhumerus -197.112 -180.219 257.392
lradius 13.8969
lwrist 9.00017
lhand -12.7972 -9.02124
lfingers 7.12502
lthumb 13.2887 20.5351
rfemur -6.55485 -5.99239 25.7589
rtibia 36.8155
rfoot -16.7954 -11.6294
rtoes 1.9001
lfemur 9.80327 7.64654 -13.5226
ltibia 18.3199
lfoot -12.9444 -0.560288
ltoes -8.42615
25
root -0.118955 17.369 24.1735 -909.375 -10.171 -896.554
lowerback 8.64118 -2.38207 -2.04405
upperback 5.75768 -3.83943 0.816044
thorax 1.31578 -2.21978 2.25602
lowerneck -17.8043 -5.3531 -5.94336
upperneck 13.8753 -7.94133 10.4348
head 7.89105 -3.24361 3.44702
rclavicle -4.05024e-014 -7.95139e-016
rhumerus -39.5281 -7.42533 -85.9071
rradius 23.4943
rwrist 2.75885
rhand -8.01301 4.86372
rfingers 7.12502
rthumb 17.8963 -24.3328
lclavicle -4.05024e-014 -7.95139e-016
lhumerus -197.207 -181.489 257.705
lradius 13.9572
lwrist 8.56206
lhand -12.5163 -9.23428
lfingers 7.12502
lthumb 13.5594 20.3042
rfemur -6.53845 -5.69051 25.8091
rtibia 36.6332
rfoot -16.5915 -11.6602
rtoes 2.10801
lfemur 9.92144 7.53361 -13.6008
ltibia 18.2297
lfoot -13.0251 -0.312181
ltoes -8.26437
26
root -0.134144 17.3701 24.1689 -909.373 -10.0774 -896.531
lowerback 8.64556 -2.45043 -2.0549
upperback 5.74674 -3.93145 0.84111
thorax 1.30973 -2.26645 2.29462
lowerneck -17.8421 -5.32391 -5.82427
upperneck 13.8262 -7.90969 10.3595
head 7.87036 -3.22878 3.40568
rclavicle 1.30204e-014 -1.31198e-014
rhumerus -39.466 -7.04232 -86.0841
rradius 23.7088
rwrist 2.30307
rhand -8.0988 4.5741
rfingers 7.12502
rthumb 17.8138 -24.63
lclavicle 1.30204e-014 -1.31198e-014
lhumerus -197.266 -182.735 258.007
lradius 14.0014
lwrist 8.26519
lhand -12.2858 -9.47372
lfingers 7.12502
lthumb 13.7815 20.0498
rfemur -6.52773 -5.36022 25.8616
rtibia 36.468
rfoot -16.4287 -11.6927
rtoes 2.13255
lfemur 10.0069 7.39111 -13.6811
ltibia 18.1439
lfoot -13.0982 -0.0828469
ltoes -8.07716
27
root -0.148098 17.3679 24.1626 -909.412 -10.0334 -896.506
lowerback 8.69265 -2.52014 -2.06992
upperback 5.72873 -4.02632 0.869016
thorax 1.27373 -2.31431 2.34161
lowerneck -17.8353 -5.31053 -5.73198
upperneck 13.7759 -7.89772 10.2968
head 7.84489 -3.22524 3.37101
rclavicle 2.47487e-014 -5.96354e-015
rhumerus -39.4294 -6.72953 -86.2245
rradius 23.9128
rwrist 1.83084
rhand -8.18564 4.26627
rfingers 7.12502
rthumb 17.7302 -24.9454
lclavicle 2.47487e-014 -5.96354e-015
lhumerus -197.369 -184.056 258.305
lradius 14.0595
lwrist 7.9949
lhand -12.0327 -9.69936
lfingers 7.12502
lthumb 14.0255 19.8074
rfemur -6.45525 -5.03417 25.905
rtibia 36.308
rfoot -16.2921 -11.7248
rtoes 2.12975
lfemur 10.1169 7.22618 -13.7558
ltibia 18.0891
lfoot -13.1996 0.127488
ltoes -8.15125
28
root -0.161001 17.3672 24.1556 -909.43 -10.0371 -896.504
lowerback 8.69898 -2.59475 -2.1157
upperback 5.72672 -4.12987 0.891708
thorax 1.27919 -2.36825 2.39777
lowerneck -17.86 -5.30022 -5.65213
upperneck 13.729 -7.89126 10.259
head 7.8283 -3.22186 3.34552
rclavicle 5.33737e-014 -1.94809e-014
rhumerus -39.3871 -6.2917 -86.4155
rradius 24.1828
rwrist 1.17559
rhand -8.2995 3.953
rfingers 7.12502
rthumb 17.6206 -25.2685
lclavicle 5.33737e-014 -1.94809e-014
lhumerus -197.485 -185.24 258.63
lradius 14.2126
lwrist 7.88597
lhand -11.8184 -9.87524
lfingers 7.12502
lthumb 14.232 19.6171
rfemur -6.39968 -4.74852 25.9135
rtibia 36.1606
rfoot -16.17 -11.7574
rtoes 2.16452
lfemur 10.2013 7.02207 -13.8641
ltibia 18.0416
lfoot -13.2871 0.339204
ltoes -8.14839
